<svg xmlns="http://www.w3.org/2000/svg" viewBox="0 0 1408 297" role="img" aria-labelledby="pinkietech-logo-reverse-title pinkietech-logo-reverse-desc">
  <title id="pinkietech-logo-reverse-title">PinkieTech reverse logo</title>
  <desc id="pinkietech-logo-reverse-desc">Finished vector PinkieTech logo with smoothed traced paths.</desc>
  <defs>
    <linearGradient id="pinkietech-logo-reverse-orange" x1="18" y1="18" x2="278" y2="279" gradientUnits="userSpaceOnUse">
      <stop offset="0" stop-color="#ff7a18"/>
      <stop offset="0.52" stop-color="#ff5e13"/>
      <stop offset="1" stop-color="#f04c10"/>
    </linearGradient>
  </defs>
  <path class="symbol" d="M 126 19.689 C 49.028 33.298, 0.358 113.151, 23.727 187.490 C 31.202 211.269, 47.434 235.108, 66.450 250.236 C 72.311 254.899, 72.987 254.484, 75.003 244.986 C 76.915 235.978, 75.792 230.210, 69.572 217.074 C 62.862 202.904, 61.676 198.293, 62.168 188.293 C 62.688 177.732, 65.689 171.556, 75.284 161.296 C 83.823 152.165, 85.711 148.940, 89.543 136.938 C 94.877 120.229, 102.226 110.363, 111.120 107.968 C 121.110 105.278, 131 112.817, 131 123.123 C 131 126.076, 131.128 126.197, 132.750 124.776 C 145.421 113.665, 163.651 123.638, 157.972 138.574 C 156.478 142.503, 157.468 142.675, 161.450 139.178 C 168.183 133.267, 175.107 132.695, 180.904 137.573 C 185.526 141.462, 186.457 146.353, 184.048 154.093 C 182.966 157.570, 182.295 160.628, 182.557 160.890 C 183.506 161.839, 188.552 157.220, 190.735 153.406 C 192.644 150.070, 209.574 110.905, 219.974 85.766 C 223.891 76.298, 227.357 72.990, 233.327 73.022 C 239.472 73.055, 244 77.456, 244 83.397 C 244 84.787, 238.195 100.679, 231.101 118.712 C 217.596 153.038, 215.844 158.230, 211.434 177 C 200.633 222.967, 182.345 247.112, 140.250 270.980 C 130.102 276.735, 129.508 277.452, 134.125 278.375 C 145.852 280.720, 171.789 278.050, 187.375 272.892 C 271.020 245.210, 303.788 146.935, 253.771 73.762 C 225.899 32.987, 174.299 11.150, 126 19.689" fill="url(#pinkietech-logo-reverse-orange)" fill-rule="evenodd"/>
  <path class="wordmark" d="M 354.400 75.400 C 351 78.800, 351 78.800, 351 156.335 C 351 203.284, 351.378 234.863, 351.957 236.387 C 354.175 242.220, 363.071 243.694, 368.234 239.084 C 371.500 236.168, 371.500 236.168, 372 211.334 L 372.500 186.500 398.500 185.934 C 422.057 185.422, 425.099 185.157, 430.880 183.118 C 463.618 171.567, 478.141 136.303, 463.404 104.146 C 459.065 94.677, 447.664 83.068, 438 78.278 C 426.206 72.432, 422.814 72, 388.690 72 C 357.800 72, 357.800 72, 354.400 75.400 M 960.110 74.382 C 952.813 78.468, 953.515 90.241, 961.215 92.925 C 963.009 93.551, 972.516 94, 983.949 94 C 997.562 94, 1003.958 94.358, 1004.764 95.164 C 1005.639 96.039, 1005.773 113.122, 1005.304 163.914 C 1004.623 237.597, 1004.631 237.723, 1010.034 240.517 C 1015.584 243.388, 1022.535 241.510, 1024.805 236.528 C 1025.695 234.576, 1026 216.310, 1026 165.075 C 1026 110.297, 1026.262 96.028, 1027.283 95.180 C 1028.073 94.525, 1036.704 93.998, 1049.762 93.808 C 1070.959 93.500, 1070.959 93.500, 1073.729 90.727 C 1077.660 86.794, 1077.659 80.204, 1073.728 76.273 C 1070.956 73.500, 1070.956 73.500, 1016.728 73.272 C 972.962 73.087, 962.039 73.301, 960.110 74.382 M 684.998 87.750 C 681.965 90.500, 681.965 90.500, 681.733 163.164 C 681.500 235.828, 681.500 235.828, 683.820 238.303 C 687.951 242.710, 694.402 242.598, 698.960 238.040 C 700.855 236.145, 701 234.779, 701 218.845 C 701 201.690, 701 201.690, 705.105 197.785 C 710.095 193.039, 706.970 190.654, 733.232 219.250 C 753.208 241, 753.208 241, 758.015 241 C 762.155 241, 763.181 240.573, 765.411 237.923 C 769.612 232.931, 768.975 229.167, 762.750 222.198 C 751.901 210.052, 739.354 196.278, 733.282 189.847 C 729.827 186.188, 727 182.520, 727 181.696 C 727 180.400, 747.200 162.140, 758.224 153.470 C 764.698 148.379, 765.540 142.449, 760.505 137.414 C 757.034 133.943, 751.465 134.134, 746.400 137.899 C 744.255 139.493, 733.733 148.493, 723.018 157.899 C 712.303 167.304, 703.191 175, 702.768 175 C 702.346 175, 702 156.842, 702 134.649 C 702 108.455, 701.623 93.217, 700.925 91.215 C 698.647 84.679, 690.371 82.879, 684.998 87.750 M 1308.388 85.942 C 1307.227 86.432, 1305.314 88.057, 1304.138 89.552 C 1302 92.270, 1302 92.270, 1302 164.180 C 1302 236.091, 1302 236.091, 1304.455 238.545 C 1308.639 242.730, 1318.151 241.347, 1320.651 236.190 C 1321.102 235.261, 1321.702 219.838, 1321.985 201.918 C 1322.500 169.336, 1322.500 169.336, 1325.526 164.445 C 1333.363 151.777, 1351.359 149.005, 1362.195 158.796 C 1369.598 165.483, 1369.443 164.616, 1370 202.338 C 1370.500 236.176, 1370.500 236.176, 1373.306 238.588 C 1378.482 243.038, 1386.066 241.481, 1388.585 235.452 C 1390.379 231.156, 1390.630 175.109, 1388.891 166.799 C 1386.353 154.669, 1376.592 142.464, 1365.253 137.243 C 1353.986 132.056, 1336.749 133.076, 1326.859 139.514 C 1324.856 140.818, 1322.944 141.610, 1322.609 141.275 C 1322.274 140.941, 1322 129.724, 1322 116.349 C 1322 92.032, 1322 92.032, 1319.250 89.013 C 1316.298 85.774, 1311.801 84.502, 1308.388 85.942 M 372.456 93.255 C 372.191 93.946, 372.092 110.483, 372.237 130.005 L 372.500 165.500 395.664 165.768 C 422.271 166.076, 425.809 165.347, 435.344 157.592 C 453.274 143.008, 451.990 111.724, 432.931 98.814 C 424.031 92.786, 419.634 92, 394.787 92 C 378.181 92, 372.822 92.301, 372.456 93.255 M 501.110 96.396 C 497.841 98.207, 496.078 101.729, 496.035 106.527 C 495.968 114.156, 502.458 119.031, 509.983 117.005 C 515.778 115.444, 518.311 111.701, 517.727 105.559 C 516.904 96.905, 508.527 92.285, 501.110 96.396 M 803.256 96.029 C 798.397 97.983, 795.581 106.357, 798.117 111.316 C 802.675 120.229, 817.723 118.323, 819.547 108.601 C 821.253 99.508, 812.125 92.463, 803.256 96.029 M 589.112 135.581 C 575.775 139.167, 564.492 148.563, 558.586 161 C 555.500 167.500, 555.500 167.500, 555.202 201.554 C 554.914 234.430, 554.974 235.697, 556.921 238.173 C 560.625 242.881, 570.179 242.270, 572.920 237.150 C 573.622 235.838, 574 225.026, 574 206.247 C 574 171.580, 574.427 169.289, 582.358 161.358 C 593.205 150.510, 608.154 150.323, 619.058 160.897 C 626.513 168.127, 627 170.843, 627 205.231 C 627 236.965, 627.274 238.628, 632.887 240.953 C 636.751 242.554, 641.139 241.544, 644.124 238.369 C 646.493 235.850, 646.501 235.760, 646.796 207.718 C 646.969 191.248, 646.650 176.674, 646.026 172.547 C 641.978 145.775, 615.399 128.511, 589.112 135.581 M 887 135.886 C 872.956 140.426, 862.437 149.433, 856.173 162.280 C 840.008 195.433, 855.786 231.971, 890 240.616 C 897.611 242.539, 913.426 242.008, 921.280 239.565 C 927.269 237.702, 939.303 231.427, 941.461 229.043 C 946.715 223.237, 942.166 213.400, 934.345 213.654 C 931.876 213.734, 928.428 215.039, 924.708 217.300 C 913.129 224.338, 898.427 225.010, 887.179 219.015 C 878.378 214.324, 872.172 205.984, 871.719 198.239 C 871.500 194.500, 871.500 194.500, 908.617 194.238 C 945.734 193.976, 945.734 193.976, 948.367 191.536 C 950.677 189.395, 951 188.319, 951 182.758 C 951 161.655, 937.374 142.791, 917.282 136.078 C 909.244 133.392, 894.992 133.302, 887 135.886 M 1099 135.886 C 1081.877 141.422, 1070.284 153.359, 1064.897 171 C 1055.589 201.481, 1072.144 232.934, 1101.460 240.468 C 1113.969 243.683, 1130.815 241.414, 1143.115 234.858 C 1153.990 229.062, 1156.672 223.022, 1151.127 216.816 C 1147.185 212.404, 1143.226 212.514, 1135.475 217.251 C 1121.044 226.069, 1102.775 224.621, 1091.955 213.801 C 1088.303 210.149, 1084.288 202.113, 1083.811 197.500 C 1083.500 194.500, 1083.500 194.500, 1120.339 194 C 1164.398 193.402, 1161.501 194.440, 1160.786 179.505 C 1159.815 159.253, 1146.700 141.694, 1128.299 136.011 C 1119.946 133.431, 1106.768 133.374, 1099 135.886 M 1222.385 136.051 C 1205.198 141.500, 1193.044 153.773, 1187.478 171.302 C 1184.499 180.680, 1184.132 193.846, 1186.584 203.356 C 1195.088 236.337, 1232.018 251.711, 1263.279 235.284 C 1271.473 230.978, 1274.355 227.263, 1273.582 222 C 1272.397 213.932, 1264.245 211.671, 1256.227 217.188 C 1249.691 221.685, 1245.602 222.906, 1236.910 222.956 C 1220.329 223.052, 1207.892 211.604, 1205.016 193.597 C 1202.515 177.944, 1210.485 162.504, 1224.500 155.850 C 1234.766 150.976, 1246.498 152.119, 1256.441 158.960 C 1262.571 163.177, 1267.842 163.164, 1271.411 158.923 C 1276.611 152.743, 1273.365 146.138, 1262.204 140.189 C 1250.264 133.826, 1234.555 132.193, 1222.385 136.051 M 499.923 138.923 C 497 141.846, 497 141.846, 497 188.788 C 497 234.311, 497.061 235.808, 499.012 238.288 C 502.992 243.348, 512.616 242.577, 515.517 236.966 C 517.484 233.163, 517.748 145.736, 515.805 141.472 C 513.124 135.587, 504.624 134.223, 499.923 138.923 M 802.750 137.080 C 798.130 139.771, 798 141.191, 798 188.903 C 798 237.243, 798.070 237.951, 803.145 240.575 C 807.978 243.074, 814.659 241.373, 816.970 237.055 C 817.634 235.815, 818 218.567, 818 188.489 C 818 141.846, 818 141.846, 815.077 138.923 C 811.970 135.816, 806.360 134.977, 802.750 137.080 M 889.500 155.355 C 880.564 159.528, 872 169, 872 174.711 C 872 177.031, 872 177.031, 900.750 176.765 C 929.445 176.501, 929.501 176.496, 929.811 174.318 C 930.565 169.021, 922.963 159.844, 914.509 155.844 C 906.541 152.075, 896.927 151.886, 889.500 155.355 M 1100.491 155.844 C 1092.215 159.760, 1082.770 171.353, 1084.399 175.597 C 1085.055 177.307, 1139.439 177.718, 1140.487 176.021 C 1141.667 174.112, 1138.594 166.821, 1134.788 162.496 C 1126.315 152.871, 1112.457 150.183, 1100.491 155.844" fill="#fff" fill-rule="evenodd"/>
</svg>
