<svg xmlns="http://www.w3.org/2000/svg" viewBox="0 0 296 297" role="img" aria-labelledby="pinkietech-mark-title pinkietech-mark-desc">
  <title id="pinkietech-mark-title">PinkieTech symbol</title>
  <desc id="pinkietech-mark-desc">Finished vector PinkieTech symbol with smoothed traced paths.</desc>
  <defs>
    <linearGradient id="pinkietech-mark-orange" x1="18" y1="18" x2="278" y2="279" gradientUnits="userSpaceOnUse">
      <stop offset="0" stop-color="#ff7a18"/>
      <stop offset="0.52" stop-color="#ff5e13"/>
      <stop offset="1" stop-color="#f04c10"/>
    </linearGradient>
  </defs>
  <path class="symbol" d="M 126 19.689 C 49.028 33.298, 0.358 113.151, 23.727 187.490 C 31.202 211.269, 47.434 235.108, 66.450 250.236 C 72.311 254.899, 72.987 254.484, 75.003 244.986 C 76.915 235.978, 75.792 230.210, 69.572 217.074 C 62.862 202.904, 61.676 198.293, 62.168 188.293 C 62.688 177.732, 65.689 171.556, 75.284 161.296 C 83.823 152.165, 85.711 148.940, 89.543 136.938 C 94.877 120.229, 102.226 110.363, 111.120 107.968 C 121.110 105.278, 131 112.817, 131 123.123 C 131 126.076, 131.128 126.197, 132.750 124.776 C 145.421 113.665, 163.651 123.638, 157.972 138.574 C 156.478 142.503, 157.468 142.675, 161.450 139.178 C 168.183 133.267, 175.107 132.695, 180.904 137.573 C 185.526 141.462, 186.457 146.353, 184.048 154.093 C 182.966 157.570, 182.295 160.628, 182.557 160.890 C 183.506 161.839, 188.552 157.220, 190.735 153.406 C 192.644 150.070, 209.574 110.905, 219.974 85.766 C 223.891 76.298, 227.357 72.990, 233.327 73.022 C 239.472 73.055, 244 77.456, 244 83.397 C 244 84.787, 238.195 100.679, 231.101 118.712 C 217.596 153.038, 215.844 158.230, 211.434 177 C 200.633 222.967, 182.345 247.112, 140.250 270.980 C 130.102 276.735, 129.508 277.452, 134.125 278.375 C 145.852 280.720, 171.789 278.050, 187.375 272.892 C 271.020 245.210, 303.788 146.935, 253.771 73.762 C 225.899 32.987, 174.299 11.150, 126 19.689" fill="url(#pinkietech-mark-orange)" fill-rule="evenodd"/>
</svg>
